<svg xmlns="http://www.w3.org/2000/svg" width="2500" height="2500" viewBox="0 0 192.756 192.756" id="red"><g fill-rule="evenodd" clip-rule="evenodd"><path fill="#fff" d="M0 0h192.756v192.756H0V0z"></path><path fill="#dfb33c" d="M97.006 75.3c21.744 0 39.457 17.713 39.457 39.459 0 21.745-17.713 39.485-39.457 39.485-21.747 0-39.487-17.74-39.487-39.485 0-21.746 17.74-39.459 39.487-39.459z"></path><path fill="#cc2229" d="M98.723 133.016c1.09-.326 2.914-1.88 3.133-3.324.191-1.444-.326-2.997-1.309-.899-.953 2.126-1.279 2.889-2.043 3.216-.736.353-.846 1.334.219 1.007zM176.686 126.694c1.062.326 1.279.653 1.934 1.335.654.653 1.172 1.444.436 1.989-.762.545-1.197.654-2.043-.218-.871-.899-1.717-2.234-1.717-2.234s.327-1.226 1.39-.872zM182.053 131.463c.873.218.654.327 1.172 1.227.545.872.873 1.989.982 2.779.107.763.107 3.106-.982 2.207-1.062-.872-1.717-2.534-1.934-3.651-.191-1.118-.082-2.78.762-2.562z"></path><path fill="#cc2229" d="M118.26 93.122c1.527-1.444 2.371-2.67 4.742-2.208 2.344.437 4.496 2.534 5.805 2.534 1.279 0 3.732.109 5.26 1.009 1.498.899 2.779 1.662 3.105 2.562.328.872.109 1.335 1.391 1.227 1.279-.109 4.195-.682 5.803.108 1.609.763 3.326 3.542 4.715 3.761 1.418.245 1.717.899 3.76.79 2.045-.108 3.871.218 6.133 1.771s5.26 4.333 7.629 4.224c2.344-.109 5.041 0 6.105-1.335 1.09-1.335 1.199-4.224.762-5.341-.436-1.09-2.152-4.333-4.74-5.995-2.562-1.663-3.762-3.325-3.543-4.333.219-.981.762-3.434 2.371-4.115 1.607-.654 4.713-.981 5.695-1.88.953-.899 2.262-1.989 2.262-1.989s.627-1.008.408 1.199c-.191 2.234 0 2.916-1.281 4.115-1.279 1.227-2.262 2.234-3.541 2.234-1.281 0-2.889.109-1.826 1.771 1.09 1.662 3.869 2.671 4.822 4.66.98 2.017 3.652 5.014 1.936 9.128-1.717 4.115-5.777 4.552-6.758 4.66-.955.109-3.326-.108-4.197.109-.844.218-1.717.218-1.717.218s.326 1.335 0 3.461c-.299 2.099-.736 4.224-.953 4.878-.219.682 0 2.017.953 2.125.98.109 4.414.437 5.26.437.871 0 .871.327 1.09 1.117.219.763 1.172 3.216 2.371 4.333 1.172 1.117 2.996 1.662 3.324 2.207.326.572.219 2.126 1.172 2.126.98 0 2.043.108 2.043.108l1.607 4.442-3.215.327s-1.389 0-1.826-.764c-.436-.79-1.199-2.452-3.76-2.344-2.588.109-3.107.327-3.76-.545-.654-.899-1.719-3.134-6.023-2.997-4.277.108-3.543.872-4.277.763-.764-.109-2.154-1.662-2.916-1.771-.736-.108-1.391.327-2.045-.108-.627-.464-2.125-2.234-2.125-2.234l-.764-2.998s0-1.117 1.717.437c1.717 1.58 2.045 2.888 4.416 3.352 2.344.436 2.887.763 2.887.763s1.391-.108-.844-1.09c-2.262-1.009-5.914-4.905-6.459-6.785-.545-1.907-.953-4.66-.953-4.66l-.545.109-.326 4.333s0 1.989-2.889 2.098c-2.916.109-4.852.327-6.787.79-1.906.437-3.951.654-3.951.654s-1.607.109-1.607-1.009c0-1.09.627-2.315.627-2.315l-.734-.109s-1.719 3.106-2.809 4.114c-1.062.981-3.434 4.088-3.434 4.088s-1.389 3.461.438 3.679c1.824.218 2.371 1.663 3.76.327 1.391-1.335 2.998-3.76 2.998-3.76s1.172-.9 2.043-.791c.873.109 2.045.109 2.045.109l-1.281 3.896s-.326.545-.873.436c-.545-.108-.652 0-.953.9-.326.871-.762 2.561-1.934 2.997-1.199.437-3.135.763-4.961-.327-1.826-1.117-3.76-1.907-4.932-1.907s-3.543-1.444-3.652-3.651c-.109-2.234.109-4.66.873-5.996.736-1.335 1.279-2.452 1.279-2.452l1.5.327s-.846 2.125-1.391 3.679-1.09 3.325-.762 4.333c.326.98 2.262 2.562 1.934.545-.326-1.989-.518-1.771-.109-3.106.438-1.335 2.045-4.66 2.045-4.66s1.199-1.798-1.391-2.125c-2.588-.327-2.807-.218-2.889-1.444-.109-1.227-.217-2.316-.217-2.316s-.545-2.125-1.09 0c-.518 2.098-.846 1.771-.846 1.771s-.109.763.518.98c.654.246 2.262 1.689.654 1.799s-2.889.109-3.652-.463c-.734-.545-1.934-2.316-2.043-.109-.109 2.234.545 2.998 1.199 3.896.627.899 1.826 1.771 1.826 1.771s.189.682-.873 1.117c-1.062.437-.953 1.227-.326 1.444.654.218 1.199.545 1.09 1.771-.109 1.226.109 2.671-1.826 2.126-1.934-.572-2.916-1.336-4.195-1.444-1.281-.109-1.609-.682-2.371-.437-.736.219-2.453.763-2.779.219-.328-.573-1.199-1.69-1.826-.219-.654 1.444-2.262 1.662-3.434 2.207-1.199.545-1.5 0-.873-.545.654-.572 1.936-1.907 2.154-3.134.217-1.198.545-2.099.98-2.752.408-.682.518-2.234-.436-1.227-.982.981-.654-.572-.438-1.798.219-1.199.438-3.216 1.172-4.77.764-1.553.982-7.33 2.045-9.892 2.779-6.594 7.138-12.317 12.234-17.221zm-1.826 21.119c.873-.109 1.092-.546 1.092.218 0 .79.107 1.117-.438 1.335s-1.389-.218-1.389-.218l.735-1.335zm48.451 13.898c.955-.246 1.908-.354 3.326.653 1.389 1.009 2.561 2.779 2.561 2.779s.436 1.99-1.062.682c-1.498-1.335-2.807-3.134-3.652-3.024-.872.108-2.154-.873-1.173-1.09zm-54.772 1.88c-.873-.218-.982-2.452.652-1.336 1.61 1.118.192 1.553-.652 1.336zm-2.808-9.102l1.826-4.224s.764-.682 1.199-.109c.436.545.736.981.736.981s1.199.327.654-.872a18.07 18.07 0 0 1-.846-2.344s-.762-2.344-2.043.436c-1.309 2.78-2.48 5.56-2.48 5.56s.329 1.88.954.572zm12.482-20.138s1.906-1.309 1.498.681c-.436 1.989-1.199 4.878-1.309 5.777-.082.899-.627 1.553-.953.654-.326-.873-.219-3.106-.109-4.333.109-1.199.654-2.207.654-2.207l.219-.572zM94.035 133.016c-1.09-.326-2.916-1.88-3.134-3.324s.327-2.997 1.308-.899c.954 2.126 1.281 2.889 2.017 3.216.762.353.872 1.334-.191 1.007zM16.072 126.694c-1.09.326-1.309.653-1.935 1.335-.654.653-1.199 1.444-.436 1.989s1.172.654 2.044-.218c.845-.899 1.717-2.234 1.717-2.234s-.328-1.226-1.39-.872zM10.703 131.463c-.872.218-.654.327-1.199 1.227-.518.872-.845 1.989-.954 2.779-.109.763-.109 3.106.954 2.207 1.09-.872 1.717-2.534 1.935-3.651s.109-2.78-.736-2.562z"></path><path fill="#cc2229" d="M74.469 93.122c-1.499-1.444-2.344-2.67-4.715-2.208-2.371.437-4.523 2.534-5.804 2.534s-3.76.109-5.259 1.009-2.779 1.662-3.106 2.562c-.327.872-.109 1.335-1.39 1.227-1.309-.109-4.197-.682-5.805.108-1.607.763-3.324 3.542-4.741 3.761-1.39.245-1.717.899-3.733.79-2.044-.108-3.87.218-6.131 1.771s-5.259 4.333-7.63 4.224c-2.371-.109-5.042 0-6.104-1.335-1.09-1.335-1.199-4.224-.764-5.341.437-1.09 2.153-4.333 4.715-5.995 2.589-1.663 3.761-3.325 3.542-4.333-.218-.981-.736-3.434-2.344-4.115-1.608-.654-4.742-.981-5.695-1.88-.981-.899-2.262-1.989-2.262-1.989s-.654-1.008-.436 1.199c.218 2.234 0 2.916 1.308 4.115 1.281 1.227 2.234 2.234 3.542 2.234 1.281 0 2.889.109 1.826 1.771-1.09 1.662-3.87 2.671-4.851 4.66-.954 2.017-3.651 5.014-1.935 9.128 1.717 4.115 5.804 4.552 6.786 4.66.953.109 3.324-.108 4.169.109.872.218 1.717.218 1.717.218s-.3 1.335 0 3.461c.327 2.099.763 4.224.981 4.878.218.682 0 2.017-.981 2.125-.954.109-4.387.437-5.259.437-.845 0-.845.327-1.063 1.117-.218.763-1.172 3.216-2.371 4.333-1.172 1.117-2.998 1.662-3.325 2.207-.327.572-.218 2.126-1.172 2.126-.981 0-2.043.108-2.043.108l-1.608 4.442 3.216.327s1.39 0 1.826-.764c.436-.79 1.172-2.452 3.76-2.344 2.562.109 3.106.327 3.761-.545.627-.899 1.717-3.134 5.995-2.997 4.306.108 3.542.872 4.306.763.763-.109 2.152-1.662 2.889-1.771.763-.108 1.417.327 2.043-.108.654-.464 2.153-2.234 2.153-2.234l.763-2.998s0-1.117-1.716.437c-1.717 1.58-2.044 2.888-4.415 3.352-2.371.436-2.889.763-2.889.763s-1.417-.108.845-1.09c2.262-1.009 5.913-4.905 6.458-6.785.518-1.907.954-4.66.954-4.66l.545.109.327 4.333s0 1.989 2.889 2.098c2.888.109 4.823.327 6.758.79 1.935.437 3.979.654 3.979.654s1.608.109 1.608-1.009c0-1.09-.627-2.315-.627-2.315l.736-.109s1.717 3.106 2.807 4.114c1.063.981 3.434 4.088 3.434 4.088s1.39 3.461-.436 3.679-2.371 1.663-3.76.327c-1.39-1.335-2.998-3.76-2.998-3.76s-1.199-.9-2.044-.791c-.872.109-2.043.109-2.043.109l1.28 3.896s.327.545.872.436c.518-.108.627 0 .954.9.327.871.763 2.561 1.935 2.997s3.106.763 4.933-.327c1.826-1.117 3.76-1.907 4.959-1.907 1.172 0 3.543-1.444 3.652-3.651.109-2.234-.109-4.66-.872-5.996-.763-1.335-1.281-2.452-1.281-2.452l-1.499.327s.845 2.125 1.39 3.679c.545 1.554 1.063 3.325.736 4.333-.3.98-2.235 2.562-1.935.545.327-1.989.545-1.771.109-3.106-.409-1.335-2.016-4.66-2.016-4.66s-1.199-1.798 1.39-2.125c2.562-.327 2.78-.218 2.889-1.444s.218-2.316.218-2.316.545-2.125 1.063 0c.545 2.098.872 1.771.872 1.771s.109.763-.545.98c-.626.246-2.234 1.689-.626 1.799 1.607.109 2.888.109 3.651-.463.736-.545 1.935-2.316 2.017-.109.109 2.234-.518 2.998-1.172 3.896-.627.899-1.826 1.771-1.826 1.771s-.218.682.872 1.117c1.063.437.954 1.227.327 1.444-.654.218-1.199.545-1.09 1.771.109 1.226-.109 2.671 1.826 2.126 1.935-.572 2.888-1.336 4.196-1.444 1.281-.109 1.607-.682 2.344-.437.763.219 2.479.763 2.807.219.327-.573 1.172-1.69 1.826-.219.654 1.444 2.262 1.662 3.434 2.207s1.499 0 .872-.545c-.654-.572-1.935-1.907-2.152-3.134-.218-1.198-.545-2.099-.981-2.752-.436-.682-.518-2.234.436-1.227.954.981.654-.572.436-1.798-.218-1.199-.436-3.216-1.199-4.77-.736-1.553-.954-7.33-2.016-9.892-2.786-6.594-7.146-12.317-12.269-17.221zm1.826 21.119c-.845-.109-1.063-.546-1.063.218 0 .79-.109 1.117.436 1.335.518.218 1.39-.218 1.39-.218l-.763-1.335zm-48.424 13.898c-.953-.246-1.935-.354-3.324.653-1.39 1.009-2.589 2.779-2.589 2.779s-.409 1.99 1.09.682c1.499-1.335 2.78-3.134 3.652-3.024.844.108 2.152-.873 1.171-1.09zm54.773 1.88c.845-.218.954-2.452-.654-1.336-1.608 1.118-.218 1.553.654 1.336zm2.779-9.102l-1.826-4.224s-.736-.682-1.171-.109c-.436.545-.763.981-.763.981s-1.172.327-.627-.872c.518-1.227.845-2.344.845-2.344s.763-2.344 2.044.436c1.281 2.78 2.48 5.56 2.48 5.56s-.327 1.88-.982.572zM72.97 100.779s-1.935-1.309-1.499.681c.436 1.989 1.172 4.878 1.281 5.777.109.899.654 1.553.981.654.327-.873.218-3.106.109-4.333-.109-1.199-.654-2.207-.654-2.207l-.218-.572z"></path><path fill="#e8d53d" d="M35.5 39.084v28.259h5.723v-22.89h2.726s4.142-.164 4.142 3.651c0 3.788-3.706 3.706-3.706 3.706h-1.362v6.513l5.723 9.02h6.649l-7.93-11.608s6.567-.572 6.567-7.63c0-7.085-5.014-9.02-11.582-9.02l-6.95-.001zM64.468 49.521c-9.074 0-9.211 8.448-9.211 9.456 0 .981.137 8.856 9.646 8.856 3.08 0 5.805-1.226 7.794-4.278l-4.36-2.152s-1.145 2.207-3.434 2.207c-2.371 0-4.005-1.717-4.005-3.788H73.27v-1.363s.355-8.938-8.802-8.938zm-3.488 7.085s.354-3.215 3.434-3.215 3.352 3.215 3.352 3.215H60.98zM89.021 38.512v13.081s-2.643-2.071-5.668-2.071c-3.08 0-8.148 2.153-8.148 8.802 0 6.73 4.36 9.21 8.094 9.21 3.706 0 5.777-2.425 5.777-2.425v2.234h5.368V38.512h-5.423zm-4.17 24.389c-.272 0-3.842 0-3.842-4.305 0-4.36 3.842-4.497 3.842-4.497s4.388.136 4.388 4.36c0 4.306-4.088 4.442-4.388 4.442zM125.209 50.447h5.424v9.674s.217 3.216 3.215 3.216c3.08 0 3.08-3.216 3.08-3.216v-9.674h5.504v9.947s.654 7.793-8.42 7.793c-9.102 0-8.803-6.785-8.803-8.066v-9.674zM145.592 38.512h5.369v28.831h-5.369V38.512zM154.748 38.512h5.287v28.831h-5.287V38.512zM118.832 52.246s2.508-1.935 2.508-5.586c0-3.652-2.725-7.003-8.365-7.003h-9.512v27.686h11.719s8.365-.164 8.365-7.739c0-4.442-1.717-6.077-4.715-7.358zm-4.578 10.219h-5.15V44.507h2.727s3.705-.272 3.705 2.943-2.916 2.943-2.916 2.943h-1.717v4.851h3.352c.873 0 3.652.436 3.652 3.57-.001 3.215-3.653 3.651-3.653 3.651z"></path></g></svg>